<svg width="228" height="40" viewBox="0 0 228 40" fill="none" xmlns="http://www.w3.org/2000/svg">
<path d="M10.9761 6.85094C11.274 6.51793 11.6771 6.18492 11.8875 6.11481C12.0802 6.02718 12.5359 5.99212 12.869 6.0447C13.3071 6.09728 13.6577 6.3076 14.6567 7.44685L15.0248 6.93857C15.2351 6.65814 15.6207 6.32513 15.8836 6.18492C16.1815 6.02718 16.6022 5.95707 16.9352 6.02718C17.3032 6.07976 17.7589 6.37771 18.1621 6.83341C18.5301 7.219 18.9332 7.74481 19.0735 8.00771C19.1961 8.28814 19.4065 8.93663 19.5291 9.46244C19.6518 9.98824 19.7219 11.11 19.6869 11.9337C19.6168 13.2658 19.5467 13.5812 18.8807 14.9133C18.4775 15.7195 17.6713 17.0165 17.0929 17.7877C16.5145 18.5589 16.0764 19.2424 16.1289 19.33C16.164 19.4001 16.3042 19.4527 16.4094 19.4527C16.5321 19.4527 17.0929 18.8393 17.6538 18.0856C18.2146 17.3495 19.0209 16.035 19.4415 15.1587C19.9556 14.107 20.3763 13.4819 20.7034 13.2833C20.9663 13.108 21.7375 12.8626 22.4211 12.7224C23.0871 12.5647 23.9634 12.442 24.349 12.442C24.7346 12.442 25.4883 12.5647 26.0141 12.7224C26.5749 12.8977 27.1884 13.2307 27.4513 13.5111C27.8193 13.8792 27.942 14.1947 27.942 14.6679C27.942 15.036 27.7843 15.5618 27.5915 15.8597C27.3987 16.1577 27.241 16.4381 27.241 16.5082C27.241 16.5959 27.5214 16.7361 27.8544 16.8237C28.1874 16.9113 28.6256 17.2093 28.8184 17.4722C29.0287 17.7526 29.1864 18.2259 29.1689 18.5413C29.1689 18.8393 29.0287 19.3826 28.8534 19.7332C28.6957 20.1012 28.2049 20.6971 27.7668 21.1003C27.3286 21.4858 26.4698 22.0292 25.8388 22.3271C25.2078 22.6076 24.349 22.888 23.9109 22.923C23.2624 22.9931 22.9644 22.9055 22.2458 22.4673C21.7551 22.1694 20.8612 21.7137 20.2302 21.4683C19.5993 21.2229 18.5652 20.8549 17.8992 20.6796C16.9878 20.3992 16.7073 20.3817 16.6197 20.5569C16.5671 20.6621 16.5846 20.8198 16.6547 20.8899C16.7424 20.96 17.4084 21.1879 18.127 21.3807C18.8456 21.591 20.1075 22.0818 20.9313 22.4673C21.9654 22.9581 22.719 23.4839 23.4026 24.1674C23.9985 24.7809 24.5944 25.6222 24.9625 26.3758C25.4357 27.3398 25.5759 27.8656 25.6285 28.8296C25.6635 29.6183 25.5934 30.2142 25.4532 30.4771C25.3305 30.705 25.0326 31.0555 24.7872 31.2308C24.5418 31.4236 24.1562 31.5813 23.9109 31.5813C23.6655 31.5988 23.2098 31.5638 22.8943 31.4937C22.3685 31.371 22.3334 31.3885 22.3334 31.8968C22.3334 32.1947 22.2633 32.6154 22.1582 32.8608C22.053 33.1061 21.72 33.4567 21.4045 33.6495C21.1066 33.8423 20.6333 34 20.3529 34C20.09 34 19.459 33.8423 18.9508 33.6495C18.46 33.4567 17.6012 32.9309 17.0754 32.4401C16.5496 31.9669 15.8485 31.1607 14.9546 29.7059L15.2175 28.3914C15.3578 27.6728 15.533 26.5686 15.5856 25.9377C15.6382 25.3067 15.6557 24.2726 15.6031 23.6241C15.533 22.7653 15.4279 22.4498 15.2701 22.5199C15.1299 22.59 15.0248 23.3787 14.9546 25.2015C14.867 27.2872 14.7619 28.0058 14.4288 29.0049C14.1835 29.6709 13.6927 30.6524 13.3071 31.1782C12.9215 31.704 12.2029 32.4226 11.7297 32.7906C11.239 33.1412 10.4853 33.5618 10.0121 33.7196C9.55638 33.8773 8.96047 34 8.66251 34C8.3295 34 7.92639 33.8072 7.55832 33.4917C7.12015 33.0886 6.97994 32.7906 6.90983 32.1246C6.83972 31.4937 6.75209 31.3009 6.55929 31.3534C6.41908 31.406 5.96338 31.4586 5.54274 31.4937C4.89424 31.5462 4.7365 31.4761 4.19317 30.9328C3.57973 30.3194 3.57973 30.3018 3.63231 28.9698C3.66737 27.8831 3.77253 27.3749 4.2107 26.4635C4.49113 25.8325 5.08704 24.9386 5.50768 24.4829C6.19123 23.7468 6.38403 23.6416 6.99746 23.6416C7.38306 23.6416 8.36456 23.5014 9.18832 23.3262C10.0121 23.1334 11.1864 22.7828 11.8173 22.555C12.4483 22.3096 12.9741 22.0292 12.9916 21.924C13.0267 21.8189 12.9391 21.6786 12.8164 21.6261C12.7112 21.5735 12.3782 21.6436 12.0802 21.7838C11.7823 21.924 10.8008 22.2395 9.88939 22.4849C8.978 22.7302 7.82123 22.9756 7.348 23.0282C6.85725 23.0808 5.99844 23.0633 5.42005 22.9581C4.84166 22.8705 3.80758 22.5199 3.14156 22.1869C2.30027 21.7838 1.65178 21.293 1.0734 20.6621C0.600171 20.1363 0.162001 19.4352 0.0743664 19.1022C-0.0483214 18.629 -0.0307946 18.3485 0.214581 17.8753C0.407376 17.4722 0.757913 17.1392 1.24866 16.9113C1.65178 16.7185 1.98479 16.5082 2.00232 16.4381C2.00232 16.3505 1.84458 16.0876 1.65178 15.8247C1.42393 15.5267 1.28372 15.071 1.30124 14.6854C1.30124 14.2122 1.44146 13.8792 1.77447 13.5111C2.0549 13.2307 2.66834 12.8977 3.2292 12.7224C3.755 12.5647 4.4736 12.442 4.80661 12.442C5.13962 12.442 5.85822 12.5121 6.38403 12.6173C6.90983 12.7049 7.73359 12.9678 8.18929 13.1781C8.96047 13.5462 9.08316 13.7039 9.78423 15.1587C10.2049 16.035 11.0286 17.3846 11.6245 18.1908C12.5359 19.4177 12.7287 19.5929 12.9566 19.4177C13.1143 19.2775 13.1669 19.1197 13.0617 19.0146C12.9741 18.9269 12.5009 18.2784 11.9926 17.6124C11.4843 16.9464 10.7657 15.7546 10.3977 14.9834C10.0296 14.2122 9.66154 13.1431 9.57391 12.6173C9.48627 12.0915 9.48627 11.0924 9.55638 10.4264C9.60896 9.76039 9.83681 8.81394 10.0471 8.32319C10.2575 7.84997 10.6781 7.18395 10.9761 6.85094Z" fill="#E0D7D7"/>
<path d="M14.1832 17.2618C13.9904 16.9288 13.9729 16.7535 14.1131 16.5608C14.2183 16.4205 14.4636 16.2979 14.6389 16.2979C14.8317 16.2979 15.042 16.4381 15.1472 16.5958C15.2699 16.8237 15.2348 17.0165 15.007 17.2969C14.8492 17.5072 14.6564 17.6825 14.5863 17.7C14.4987 17.7 14.3234 17.5072 14.1832 17.2618Z" fill="#000602"/>
<path d="M10.3799 19.4527C10.3624 19.2774 10.5026 19.032 10.6954 18.9444C10.8706 18.8392 11.081 18.7516 11.1686 18.7516C11.2387 18.7516 11.4315 18.9444 11.6068 19.1898C11.7645 19.4352 11.8697 19.663 11.8171 19.6805C11.7645 19.6981 11.5892 19.8207 11.4315 19.9434C11.2037 20.0836 11.0109 20.1012 10.7655 19.9785C10.5727 19.8733 10.3974 19.6455 10.3799 19.4527Z" fill="#000602"/>
<path d="M17.4082 19.663C17.3906 19.5929 17.5133 19.3475 17.6886 19.1372C17.8463 18.9269 18.0041 18.7516 18.0391 18.7516C18.0917 18.7516 18.2845 18.8392 18.4773 18.9269C18.6701 19.0145 18.8278 19.2599 18.8278 19.4527C18.8278 19.6455 18.6701 19.8733 18.4773 19.9785C18.2436 20.0953 18.0099 20.0953 17.7762 19.9785C17.5834 19.8733 17.4257 19.7506 17.4082 19.663Z" fill="#000602"/>
<path d="M14.2358 19.2774C14.341 19.2774 14.4461 19.1898 14.4461 19.1021C14.4461 19.0145 14.5162 18.9269 14.6214 18.9269C14.7266 18.9269 14.7967 19.0145 14.7967 19.1021C14.7967 19.1898 14.9018 19.2774 15.0245 19.2774C15.1297 19.2774 15.4452 19.4877 16.1638 20.2414L15.8658 21.0651C15.6379 21.7312 15.4977 21.9064 15.1121 21.9941C14.8317 22.0467 14.376 22.0291 14.0956 21.9415C13.7976 21.8714 13.5172 21.6961 13.4646 21.5559C13.3945 21.4157 13.2894 21.0126 13.2192 20.6796C13.0966 20.1362 13.1316 20.0135 13.5523 19.6805C13.7976 19.4702 14.1131 19.2774 14.2358 19.2774Z" fill="#000602"/>
<path d="M11.782 23.6591C11.7645 23.4839 11.8872 23.256 12.0274 23.1859C12.1852 23.1158 12.4656 23.0282 12.6409 23.0106C12.8687 22.9931 12.9739 23.1158 13.0089 23.5014C13.0323 23.8402 12.9447 24.0622 12.746 24.1674C12.5532 24.2726 12.3078 24.2726 12.1326 24.1674C11.9573 24.0798 11.7996 23.8519 11.782 23.6591Z" fill="#000602"/>
<path d="M16.5143 24.1674C16.3215 24.0622 16.1988 23.8169 16.1988 23.4839C16.1988 23.0282 16.2689 22.958 16.6019 23.0106C16.8122 23.0457 17.0927 23.1333 17.2154 23.1859C17.3205 23.256 17.4257 23.4663 17.4257 23.6591C17.4257 23.8519 17.2855 24.0798 17.1277 24.1674C16.9349 24.2726 16.6896 24.2726 16.5143 24.1674Z" fill="#000602"/>
<path d="M49.6244 8.212C50.5871 8.212 51.4484 8.30067 52.2084 8.478C52.9684 8.65533 53.7158 8.934 54.4504 9.314L53.2724 11.556C52.5884 11.2267 51.9424 10.9987 51.3344 10.872C50.7518 10.72 50.1944 10.644 49.6624 10.644C48.5224 10.644 47.5978 10.9607 46.8884 11.594C46.1791 12.202 45.8244 13.0253 45.8244 14.064C45.8244 15.204 46.2044 16.1667 46.9644 16.952C47.7244 17.7373 48.5351 18.4593 49.3964 19.118C51.1951 20.4353 52.5378 21.6007 53.4244 22.614C54.3111 23.602 54.7544 24.7293 54.7544 25.996V27.63L55.8184 29.72C54.8051 30.5813 53.6778 31.24 52.4364 31.696C51.2204 32.152 49.9284 32.38 48.5604 32.38C48.1804 32.38 47.6738 32.3547 47.0404 32.304C46.4071 32.2533 45.7231 32.1393 44.9884 31.962C44.2538 31.7593 43.5571 31.468 42.8984 31.088L43.9624 28.694C44.6971 29.1247 45.4571 29.4413 46.2424 29.644C47.0531 29.8467 47.8131 29.948 48.5224 29.948C49.2571 29.948 49.9031 29.8593 50.4604 29.682C51.0431 29.5047 51.5878 29.2513 52.0944 28.922V26.3C52.0944 25.5653 51.8411 24.9067 51.3344 24.324C50.8531 23.716 50.2704 23.1587 49.5864 22.652C48.9278 22.1453 48.3198 21.6767 47.7624 21.246C46.9771 20.6127 46.2298 19.9667 45.5204 19.308C44.8111 18.6493 44.2284 17.902 43.7724 17.066C43.3418 16.23 43.1264 15.2547 43.1264 14.14C43.1264 12.2147 43.7218 10.7453 44.9124 9.732C46.1284 8.71867 47.6991 8.212 49.6244 8.212ZM62.0688 19.726L60.4348 32.38L57.8128 32.038L60.8528 8.668C61.7142 8.46533 62.5122 8.33867 63.2468 8.288C64.0068 8.23733 64.5642 8.212 64.9188 8.212C65.2988 8.212 65.8688 8.23733 66.6288 8.288C67.3888 8.33867 68.1995 8.46533 69.0608 8.668L72.0248 32.038L69.4028 32.38L67.7688 19.726H62.0688ZM64.9188 10.644C64.3362 10.644 63.7662 10.7073 63.2088 10.834L62.3728 17.294H67.4268L66.6668 10.834C66.0842 10.7073 65.5015 10.644 64.9188 10.644ZM79.4449 19.726C79.4956 18.0287 79.8503 16.3947 80.5089 14.824C81.1676 13.228 82.1049 11.8473 83.3209 10.682C84.5623 9.49133 86.0316 8.668 87.7289 8.212L88.6789 10.568C87.7163 10.7707 86.7789 11.214 85.8669 11.898C84.9803 12.582 84.2203 13.3927 83.5869 14.33C82.9789 15.2673 82.5736 16.2553 82.3709 17.294L89.5529 31.164L87.2349 32.38L80.6989 19.726H79.4449ZM78.7989 32H76.1009V8.592H78.7989V32ZM107.701 29.758C106.13 30.9233 104.686 31.658 103.369 31.962C102.077 32.2407 101.025 32.38 100.215 32.38C97.0733 32.38 94.8693 31.2527 93.6026 28.998C92.9693 27.9087 92.6146 26.794 92.5386 25.654C92.4626 24.514 92.4246 23.3993 92.4246 22.31V8.592H95.1226V22.386C95.1226 23.906 95.2239 25.1347 95.4266 26.072C95.6293 27.0093 95.9459 27.7693 96.3766 28.352C96.6806 28.6813 97.1366 29.036 97.7446 29.416C98.3526 29.7707 99.1759 29.948 100.215 29.948C101.405 29.948 102.609 29.6313 103.825 28.998V8.592H106.485V27.63L107.701 29.758ZM111.037 9.618C111.999 9.18733 113.013 8.84533 114.077 8.592C115.166 8.33866 116.217 8.212 117.231 8.212C118.295 8.212 119.283 8.364 120.195 8.668C121.132 8.94667 121.905 9.36467 122.513 9.922C123.425 10.7327 123.982 11.6193 124.185 12.582C124.413 13.5193 124.527 14.4693 124.527 15.432V19.726H120.841L125.819 31.316L123.349 32.38L117.877 19.726H114.723V32H112.063V11.708L111.037 9.618ZM114.723 17.294H121.943V16.002C121.943 15.4193 121.879 14.7733 121.753 14.064C121.626 13.3293 121.322 12.696 120.841 12.164C120.283 11.556 119.688 11.1507 119.055 10.948C118.447 10.7453 117.839 10.644 117.231 10.644C116.243 10.644 115.407 10.796 114.723 11.1V17.294ZM132.465 19.726L130.831 32.38L128.209 32.038L131.249 8.668C132.111 8.46533 132.909 8.33867 133.643 8.288C134.403 8.23733 134.961 8.212 135.315 8.212C135.695 8.212 136.265 8.23733 137.025 8.288C137.785 8.33867 138.596 8.46533 139.457 8.668L142.421 32.038L139.799 32.38L138.165 19.726H132.465ZM135.315 10.644C134.733 10.644 134.163 10.7073 133.605 10.834L132.769 17.294H137.823L137.063 10.834C136.481 10.7073 135.898 10.644 135.315 10.644ZM159.134 8.212C160.097 8.212 160.958 8.30067 161.718 8.478C162.478 8.65533 163.226 8.934 163.96 9.314L162.782 11.556C162.098 11.2267 161.452 10.9987 160.844 10.872C160.262 10.72 159.704 10.644 159.172 10.644C158.032 10.644 157.108 10.9607 156.398 11.594C155.689 12.202 155.334 13.0253 155.334 14.064C155.334 15.204 155.714 16.1667 156.474 16.952C157.234 17.7373 158.045 18.4593 158.906 19.118C160.705 20.4353 162.048 21.6007 162.934 22.614C163.821 23.602 164.264 24.7293 164.264 25.996V27.63L165.328 29.72C164.315 30.5813 163.188 31.24 161.946 31.696C160.73 32.152 159.438 32.38 158.07 32.38C157.69 32.38 157.184 32.3547 156.55 32.304C155.917 32.2533 155.233 32.1393 154.498 31.962C153.764 31.7593 153.067 31.468 152.408 31.088L153.472 28.694C154.207 29.1247 154.967 29.4413 155.752 29.644C156.563 29.8467 157.323 29.948 158.032 29.948C158.767 29.948 159.413 29.8593 159.97 29.682C160.553 29.5047 161.098 29.2513 161.604 28.922V26.3C161.604 25.5653 161.351 24.9067 160.844 24.324C160.363 23.716 159.78 23.1587 159.096 22.652C158.438 22.1453 157.83 21.6767 157.272 21.246C156.487 20.6127 155.74 19.9667 155.03 19.308C154.321 18.6493 153.738 17.902 153.282 17.066C152.852 16.23 152.636 15.2547 152.636 14.14C152.636 12.2147 153.232 10.7453 154.422 9.732C155.638 8.71867 157.209 8.212 159.134 8.212ZM183.701 29.758C182.13 30.9233 180.686 31.658 179.369 31.962C178.077 32.2407 177.025 32.38 176.215 32.38C173.073 32.38 170.869 31.2527 169.603 28.998C168.969 27.9087 168.615 26.794 168.539 25.654C168.463 24.514 168.425 23.3993 168.425 22.31V8.592H171.123V22.386C171.123 23.906 171.224 25.1347 171.427 26.072C171.629 27.0093 171.946 27.7693 172.377 28.352C172.681 28.6813 173.137 29.036 173.745 29.416C174.353 29.7707 175.176 29.948 176.215 29.948C177.405 29.948 178.609 29.6313 179.825 28.998V8.592H182.485V27.63L183.701 29.758ZM193.535 8.212C194.497 8.212 195.359 8.30067 196.119 8.478C196.879 8.65533 197.626 8.934 198.361 9.314L197.183 11.556C196.499 11.2267 195.853 10.9987 195.245 10.872C194.662 10.72 194.105 10.644 193.573 10.644C192.433 10.644 191.508 10.9607 190.799 11.594C190.089 12.202 189.735 13.0253 189.735 14.064C189.735 15.204 190.115 16.1667 190.875 16.952C191.635 17.7373 192.445 18.4593 193.307 19.118C195.105 20.4353 196.448 21.6007 197.335 22.614C198.221 23.602 198.665 24.7293 198.665 25.996V27.63L199.729 29.72C198.715 30.5813 197.588 31.24 196.347 31.696C195.131 32.152 193.839 32.38 192.471 32.38C192.091 32.38 191.584 32.3547 190.951 32.304C190.317 32.2533 189.633 32.1393 188.899 31.962C188.164 31.7593 187.467 31.468 186.809 31.088L187.873 28.694C188.607 29.1247 189.367 29.4413 190.153 29.644C190.963 29.8467 191.723 29.948 192.433 29.948C193.167 29.948 193.813 29.8593 194.371 29.682C194.953 29.5047 195.498 29.2513 196.005 28.922V26.3C196.005 25.5653 195.751 24.9067 195.245 24.324C194.763 23.716 194.181 23.1587 193.497 22.652C192.838 22.1453 192.23 21.6767 191.673 21.246C190.887 20.6127 190.14 19.9667 189.431 19.308C188.721 18.6493 188.139 17.902 187.683 17.066C187.252 16.23 187.037 15.2547 187.037 14.14C187.037 12.2147 187.632 10.7453 188.823 9.732C190.039 8.71867 191.609 8.212 193.535 8.212ZM205.713 8.592V17.294H213.617V8.592H216.239V32H213.617V19.726H205.713V32H203.015V8.592H205.713ZM221.607 8.592H224.305V32H221.607V8.592Z" fill="#E0D7D7"/>
</svg>
